<svg xmlns="http://www.w3.org/2000/svg" width="364.11" height="226.327" viewBox="0 0 364.11 226.327">
  <g id="Layer_2" data-name="Layer 2" transform="translate(0 0.007)">
    <g id="Layer_1" data-name="Layer 1">
      <path id="Path_1" data-name="Path 1" d="M105,4a35,35,0,0,1,14.89,12.74,42.37,42.37,0,0,1,6.86,17.8,110.942,110.942,0,0,1,.74,17.09H64.81q.52,13,9,18.17a22.89,22.89,0,0,0,12.42,3.24q7.69,0,12.5-4a19,19,0,0,0,4.64-5.93h23q-.9,7.67-8.34,15.57-11.58,12.56-32.4,12.56A47,47,0,0,1,55.3,80.64Q42.14,70.14,42.14,46.26q0-22.38,11.86-34.32T84.79,0A49,49,0,0,1,105,4ZM71.36,23.49q-4.77,4.91-6,13.33h38.79q-.62-9-6-13.61A19.73,19.73,0,0,0,84.8,18.57Q76.13,18.57,71.36,23.49Z" fill="#019e8c"/>
      <path id="Path_2" data-name="Path 2" d="M196.42,33.69A19.79,19.79,0,0,0,193.17,25q-3.79-5.22-11.8-5.22-11.4,0-15.6,11.3-2.22,6-2.22,15.92,0,9.45,2.22,15.21Q169.81,73,181,73q7.92,0,11.24-4.26a21.19,21.19,0,0,0,4-11.06h23a37.66,37.66,0,0,1-7.43,19.43q-10.6,14.77-31.4,14.77t-30.6-12.32Q140,67.18,140,47.55q0-22.15,10.83-34.48T180.74.74Q197,.74,207.27,8t12.22,25.68Z" fill="#019e8c"/>
      <path id="Path_3" data-name="Path 3" d="M54,109.09q3.87,3,7.9,9.89V106.24H83.59V226.32H61.31V181.53a24,24,0,0,1-8.65,9.28q-6.13,4.06-16.71,4.07-14.94,0-25.44-11.94T0,151.07q0-21.51,10.55-34.39t26-12.89Q47.32,103.79,54,109.09Zm4.81,56.54q3.16-6.56,3.17-16.61a35.59,35.59,0,0,0-2.69-14.17q-4.83-11.23-17-11.23a16.64,16.64,0,0,0-13.73,6.57q-5.19,6.56-5.18,19.94,0,8.94,2.37,14.63,4.44,10.85,16.47,10.84,11.65,0,16.55-9.97Z" fill="#019e8c"/>
      <path id="Path_4" data-name="Path 4" d="M115.8,106.08V158q0,7.35,1.73,11.06,3.07,6.57,12,6.56,11.48,0,15.72-9.32,2.21-5.06,2.2-13.35V106.08h22.83v86.11H148.43V180c-.21.26-.74,1.05-1.58,2.37a15.809,15.809,0,0,1-3,3.47,31.31,31.31,0,0,1-10.2,6.48,34.63,34.63,0,0,1-11.54,1.74q-19.07,0-25.69-13.75-3.69-7.58-3.7-22.36v-51.9Z" fill="#019e8c"/>
      <path id="Path_5" data-name="Path 5" d="M183.52,126.86v65.33h22.83V126.86Z" fill="#019e8c"/>
      <path id="Path_6" data-name="Path 6" d="M255.45,106.08h22.84v86.11H255.45Z" fill="#019e8c"/>
      <path id="Path_7" data-name="Path 7" d="M219.49,106.08h22.83v86.11H219.49Z" fill="#019e8c"/>
      <path id="Path_8" data-name="Path 8" d="M323.12,139.81a35.32,35.32,0,0,0,9-2q4.86-2.06,4.86-6.4,0-5.3-3.73-7.31t-10.93-2q-8.08,0-11.45,3.95a16.27,16.27,0,0,0-3.2,7.9H285.93q.72-11.3,6.35-18.57,9-11.37,30.79-11.37a54.92,54.92,0,0,1,25.23,5.6q11,5.63,11,21.18v39.5q0,4.11.15,9.95.24,4.5,1.35,6a8,8,0,0,0,3.31,2.6v3.32H339.65a25.88,25.88,0,0,1-1.42-4.9c-.26-1.52-.47-3.26-.63-5.21a46.59,46.59,0,0,1-10.81,8.61,32.66,32.66,0,0,1-16.53,4.19q-11.76,0-19.43-6.68t-7.66-18.92q0-15.87,12.33-23,6.76-3.87,19.9-5.53Zm13.77,10.51a24.657,24.657,0,0,1-4.37,2.17,35.831,35.831,0,0,1-6,1.54l-5.13.95q-7.2,1.28-10.35,3.08a10.31,10.31,0,0,0-5.32,9.56q0,5.77,3.25,8.34a12.37,12.37,0,0,0,7.9,2.57,23.59,23.59,0,0,0,13.6-4.27q6.22-4.26,6.46-15.56Z" fill="#019e8c"/>
      <path id="Path_9" data-name="Path 9" d="M302.53,70.82H250.29V21.54h52.24V70.82h19.31V2.23H231V90.12h71.55Z" fill="#019e8c"/>
      <rect id="Rectangle_1" data-name="Rectangle 1" width="22.83" height="20.78" transform="translate(265.51 35.38)" fill="#019e8c"/>
    </g>
  </g>
</svg>
